<svg xmlns="http://www.w3.org/2000/svg" width="512" height="512" viewBox="0 0 512 512" version="1.1">
	<path d="M 413.286 47.394 C 410.968 48.150, 407.143 49.916, 404.786 51.319 C 402.429 52.722, 385.653 68.750, 367.506 86.935 C 349.359 105.121, 334.044 120, 333.473 120 C 332.902 120, 329.524 118.471, 325.967 116.603 C 316.701 111.735, 301.235 106.190, 288.500 103.170 C 278.414 100.778, 275.672 100.559, 255.500 100.531 C 231.189 100.497, 222.140 101.844, 204.119 108.178 C 164.725 122.027, 131.269 152.205, 113.963 189.500 C 100.352 218.833, 96.171 254.518, 102.599 286.500 C 114.973 348.074, 164.798 396.571, 228 408.558 C 242.519 411.312, 268.993 411.127, 283.828 408.169 C 330.159 398.929, 369.057 370.710, 391.386 330.140 C 415.740 285.890, 417.029 233.534, 394.911 187.061 L 389.942 176.622 423.914 142.558 C 452.922 113.470, 458.272 107.647, 460.534 102.706 C 467.663 87.135, 464.633 69.498, 452.797 57.670 C 444.967 49.846, 437.687 46.705, 426.500 46.326 C 420.780 46.132, 415.964 46.522, 413.286 47.394 M 418.500 71.959 C 417.400 72.417, 415.179 74.188, 413.564 75.895 C 411.161 78.434, 410.561 80.043, 410.259 84.749 C 409.784 92.153, 412.193 96.313, 418.594 99.145 C 432.649 105.362, 445.188 89.620, 436.610 76.527 C 433.658 72.022, 424.125 69.618, 418.500 71.959 M 269 185.553 C 233.525 207.265, 201.862 226.656, 198.638 228.645 L 192.776 232.261 216.521 256.021 L 240.266 279.782 209.829 321.641 C 178.011 365.397, 177.127 366.647, 178.595 365.767 C 182.714 363.301, 315.053 282.467, 316.882 281.300 C 319.260 279.784, 319.214 279.729, 295.499 255.999 L 271.734 232.218 302.171 190.359 C 332.261 148.978, 334.414 145.963, 333.809 146.039 C 333.639 146.060, 304.475 163.842, 269 185.553" stroke="none" fill="black" fill-rule="evenodd"/>
</svg>