<svg xmlns="http://www.w3.org/2000/svg" width="512" height="512" viewBox="0 0 512 512" version="1.1">
	<path d="M 60.763 1.024 C 33.460 5.672, 11.454 25.419, 2.842 53 L 0.500 60.500 0.500 256 L 0.500 451.500 2.844 458.965 C 10.753 484.152, 27.913 501.325, 53 509.158 L 60.500 511.500 256 511.500 L 451.500 511.500 459 509.158 C 483.844 501.401, 501.370 484.005, 508.885 459.645 C 510.048 455.874, 511 451.513, 511 449.954 C 511 448.394, 511.450 446.840, 512 446.500 C 512.661 446.091, 513 381.137, 513 254.882 C 513 127.803, 512.665 64.089, 512 64.500 C 511.420 64.859, 511 63.879, 511 62.164 C 511 57.778, 507.265 46.386, 503.401 38.985 C 494.417 21.779, 479.739 9.702, 459.500 2.865 L 452.500 0.500 259 0.359 C 152.575 0.281, 63.369 0.581, 60.763 1.024 M 0.490 256 C 0.490 361.325, 0.607 404.413, 0.750 351.750 C 0.893 299.087, 0.893 212.912, 0.750 160.250 C 0.607 107.588, 0.490 150.675, 0.490 256 M 279.421 123.333 C 268.928 132.225, 247.893 149.929, 232.676 162.676 L 205.009 185.853 225.004 200.628 C 236.002 208.754, 245 215.732, 245 216.134 C 245 216.536, 240.802 224.883, 235.671 234.683 C 212.291 279.339, 208.762 286.410, 210.561 285 C 219.596 277.919, 303 207.605, 303 207.069 C 303 206.686, 294.225 199.893, 283.500 191.974 C 272.775 184.056, 264 177.178, 264 176.690 C 264 176.203, 272.046 160.323, 281.879 141.402 C 291.712 122.481, 299.475 107.037, 299.129 107.083 C 298.783 107.129, 289.915 114.441, 279.421 123.333 M 436.344 235.285 C 435.158 235.953, 416.888 253.229, 395.742 273.675 L 357.296 310.851 254.898 312.897 C 123.157 315.530, 125.645 315.439, 121.685 317.752 C 114.260 322.088, 112.040 330.233, 114.475 344.199 C 118.696 368.400, 129.121 383.997, 148.760 395.494 C 168.468 407.031, 189.694 411.031, 230.856 410.966 C 288.209 410.875, 310.914 407.298, 330.919 395.202 C 344.254 387.139, 355.004 374.587, 360.034 361.207 C 362.565 354.474, 365.594 341.043, 366.569 332.234 L 367.262 325.968 401.381 293.102 C 444.555 251.514, 449 246.899, 449 243.668 C 449 240.612, 443.071 233.985, 440.382 234.035 C 439.347 234.055, 437.530 234.617, 436.344 235.285" stroke="none" fill="black" fill-rule="evenodd"/>
</svg>