<svg xmlns="http://www.w3.org/2000/svg" width="512" height="512" viewBox="0 0 512 512" version="1.1">
	<path d="M 62 0.699 C 32.833 5.855, 10.277 26.017, 2.333 54.036 C 0.584 60.204, 0.500 69.460, 0.500 256 C 0.500 442.540, 0.584 451.796, 2.333 457.964 C 9.349 482.710, 28.478 502.007, 53.567 509.649 C 59.186 511.361, 69.705 511.472, 252.500 511.755 C 469.463 512.092, 453.924 512.605, 470.500 504.555 C 486.585 496.744, 496.514 486.900, 504.412 470.933 C 506.742 466.221, 509.210 459.471, 509.897 455.933 C 510.583 452.395, 511.562 448.719, 512.072 447.764 C 513.391 445.296, 513.319 62.685, 512 63.500 C 511.450 63.840, 511 63.144, 511 61.953 C 511 57.775, 507.789 47.433, 504.381 40.635 C 495.100 22.120, 478.831 8.555, 458.482 2.363 C 452.792 0.632, 443.024 0.536, 258.500 0.400 C 151.800 0.322, 63.375 0.456, 62 0.699 M 0.490 256 C 0.490 361.875, 0.607 405.188, 0.750 352.250 C 0.893 299.313, 0.893 212.688, 0.750 159.750 C 0.607 106.813, 0.490 150.125, 0.490 256 M 253.985 121.629 C 223.468 147.200, 198.167 168.450, 197.760 168.851 C 197.353 169.252, 207.577 177.346, 220.480 186.837 C 233.383 196.328, 244.176 204.475, 244.464 204.942 C 244.752 205.409, 235.315 224.362, 223.493 247.060 C 211.670 269.759, 202.133 288.466, 202.299 288.632 C 202.562 288.895, 310.513 198.845, 313.712 195.694 C 314.656 194.764, 309.828 190.740, 291.880 177.500 C 279.206 168.150, 268.435 160.018, 267.944 159.429 C 267.380 158.752, 274.960 143.144, 288.536 117.023 C 300.353 94.288, 309.897 75.564, 309.745 75.412 C 309.594 75.261, 284.502 96.058, 253.985 121.629 M 474.043 227.477 C 472.799 228.143, 451.084 248.670, 425.788 273.094 C 400.491 297.517, 378.828 317.819, 377.647 318.209 C 376.466 318.600, 314.525 320.098, 240 321.538 C 160.041 323.084, 102.860 324.578, 100.500 325.183 C 95.342 326.504, 89.335 332.698, 88.405 337.653 C 87.346 343.297, 88.691 359.604, 90.950 368.500 C 99.978 404.067, 128.155 426.571, 174.397 435.145 C 183.762 436.882, 190.923 437.283, 220.138 437.706 C 259.300 438.274, 289.140 436.992, 305.549 434.038 C 337.603 428.266, 359.599 415.492, 373.423 394.623 C 382.491 380.934, 387.006 367.535, 389.200 347.803 L 390.405 336.960 437.264 291.799 C 463.036 266.960, 484.995 245.412, 486.061 243.914 C 489.225 239.471, 488.598 235.578, 483.999 231.115 C 479.347 226.600, 477.169 225.804, 474.043 227.477" stroke="none" fill="black" fill-rule="evenodd"/>
</svg>