<svg xmlns="http://www.w3.org/2000/svg" width="512" height="512" viewBox="0 0 512 512" version="1.1">
	<path d="M 441.836 10.919 C 438.721 11.915, 434.446 13.759, 432.336 15.016 C 430.226 16.274, 410.500 35.218, 388.500 57.114 L 348.500 96.925 336.863 91.151 C 278.773 62.332, 209.077 66.753, 154.500 102.720 C 124.857 122.255, 100.555 151.316, 86.881 183.583 C 65.497 234.042, 67.400 290.384, 92.129 338.964 C 114.059 382.046, 151.983 414.776, 197.500 429.904 C 269.103 453.701, 347.744 431.786, 395.659 374.683 C 414.553 352.165, 427.271 327.393, 433.924 300.145 C 438.270 282.347, 439.309 271.615, 438.750 250.271 C 437.995 221.412, 433.210 201.563, 420.780 175.712 L 414.631 162.924 455.150 122.212 C 489.047 88.154, 496.083 80.601, 498.200 76 C 506.627 57.691, 503.654 38.382, 490.165 23.812 C 483.870 17.012, 478.431 13.547, 469.875 10.884 C 462.026 8.441, 449.536 8.456, 441.836 10.919 M 448.500 39.881 C 431.254 47.800, 436.956 73.301, 455.940 73.154 C 474.512 73.010, 480.330 48.147, 463.677 40.086 C 458.396 37.529, 453.758 37.466, 448.500 39.881 M 236.500 107.079 C 199.946 112.124, 164.987 131.079, 142.213 158.203 C 125.427 178.196, 115.287 198.364, 109.385 223.500 C 106.787 234.567, 106.568 237.055, 106.576 255.500 C 106.585 277.711, 108.088 287.537, 114.103 304.688 C 139.995 378.522, 216.930 420.070, 292.500 401.030 C 319.639 394.193, 342.205 381.162, 362.500 360.609 C 412.616 309.856, 419.789 231.692, 379.821 171.870 C 371.167 158.917, 352.492 140.338, 339.457 131.714 C 322.303 120.364, 305.221 113.181, 285.500 109.023 C 273.889 106.575, 247.683 105.535, 236.500 107.079 M 232.357 119.571 C 214.576 122.558, 192.994 131.436, 177 142.341 C 166.301 149.637, 148.622 167.630, 141.247 178.731 C 125.416 202.556, 118.008 227.189, 118.008 256 C 118.008 278.863, 122.342 297.732, 132.095 317.326 C 139.299 331.800, 146.137 341.181, 158.478 353.522 C 170.583 365.627, 179.740 372.362, 193.620 379.366 C 213.553 389.425, 233.030 393.992, 256 393.992 C 294.254 393.992, 326.588 380.586, 353.522 353.560 C 365.878 341.162, 372.715 331.772, 379.905 317.326 C 389.658 297.732, 393.992 278.863, 393.992 256 C 393.992 233.137, 389.658 214.268, 379.905 194.674 C 372.715 180.228, 365.878 170.838, 353.522 158.440 C 332.419 137.264, 307.170 124.118, 278.752 119.509 C 267.353 117.660, 243.545 117.692, 232.357 119.571 M 261.238 204.257 L 206.977 237.458 225.433 255.979 L 243.889 274.500 220.889 306 C 208.239 323.325, 197.431 338.319, 196.872 339.320 C 195.511 341.756, 192.072 343.767, 252.891 306.560 L 305.101 274.621 286.606 256.060 L 268.111 237.500 291.111 206 C 312.341 176.925, 316.555 170.952, 315.785 171.028 C 315.628 171.044, 291.082 185.997, 261.238 204.257" stroke="none" fill="black" fill-rule="evenodd"/>
</svg>