<?xml version="1.0" encoding="UTF-8" standalone="no"?>
<svg
   xmlns:dc="http://purl.org/dc/elements/1.1/"
   xmlns:cc="http://creativecommons.org/ns#"
   xmlns:rdf="http://www.w3.org/1999/02/22-rdf-syntax-ns#"
   xmlns:svg="http://www.w3.org/2000/svg"
   xmlns="http://www.w3.org/2000/svg"
   xmlns:sodipodi="http://sodipodi.sourceforge.net/DTD/sodipodi-0.dtd"
   xmlns:inkscape="http://www.inkscape.org/namespaces/inkscape"
   version="1.1"
   id="Layer_1"
   x="0px"
   y="0px"
   viewBox="0 0 512 512"
   style="enable-background:new 0 0 512 512;"
   xml:space="preserve"
   sodipodi:docname="app-icon.svg"
   inkscape:version="1.0.2 (e86c870879, 2021-01-15)"
   inkscape:export-filename="/home/jerluc/dev/src/github.com/jerluc/tldrecipe/pwa/public/favicon.png"
   inkscape:export-xdpi="96"
   inkscape:export-ydpi="96"><metadata
   id="metadata31"><rdf:RDF><cc:Work
       rdf:about=""><dc:format>image/svg+xml</dc:format><dc:type
         rdf:resource="http://purl.org/dc/dcmitype/StillImage" /><dc:title /></cc:Work></rdf:RDF></metadata><sodipodi:namedview
   pagecolor="#ffffff"
   bordercolor="#000000"
   borderopacity="0.25098039"
   objecttolerance="10"
   gridtolerance="10"
   guidetolerance="10"
   inkscape:pageopacity="0"
   inkscape:pageshadow="2"
   inkscape:window-width="2560"
   inkscape:window-height="1377"
   id="namedview29"
   showgrid="false"
   inkscape:zoom="1.2460689"
   inkscape:cx="100.23673"
   inkscape:cy="144.72534"
   inkscape:window-x="0"
   inkscape:window-y="33"
   inkscape:window-maximized="1"
   inkscape:current-layer="g1181"
   inkscape:document-rotation="0"
   showborder="true"
   inkscape:showpageshadow="false"
   inkscape:pagecheckerboard="false" /><defs
   id="defs47" />

















<g
   id="g1181"
   transform="translate(70.12316,-64.513538)"><rect
     style="fill:#000000;fill-opacity:1;fill-rule:evenodd;stroke:none;stroke-width:48;stroke-linecap:round;stroke-linejoin:round;stroke-miterlimit:4;stroke-dasharray:96, 48, 24, 48;stroke-dashoffset:0;stroke-opacity:1"
     id="rect102"
     width="511.99997"
     height="512"
     x="-70.123161"
     y="64.513535"
     ry="73.079193" /><g
     id="g14"
     transform="matrix(0.84134128,0,0,0.84134128,1.5865872e-4,81.233264)">
</g><g
     id="g16"
     transform="matrix(0.84134128,0,0,0.84134128,1.5865872e-4,81.233264)">
</g><g
     id="g18"
     transform="matrix(0.84134128,0,0,0.84134128,1.5865872e-4,81.233264)">
</g><g
     id="g20"
     transform="matrix(0.84134128,0,0,0.84134128,1.5865872e-4,81.233264)">
</g><g
     id="g22"
     transform="matrix(0.84134128,0,0,0.84134128,1.5865872e-4,81.233264)">
</g><g
     id="g24"
     transform="matrix(0.84134128,0,0,0.84134128,1.5865872e-4,81.233264)">
</g><g
     id="g26"
     transform="matrix(0.84134128,0,0,0.84134128,1.5865872e-4,81.233264)">
</g><g
     id="g28"
     transform="matrix(0.84134128,0,0,0.84134128,1.5865872e-4,81.233264)">
</g><g
     id="g30"
     transform="matrix(0.84134128,0,0,0.84134128,1.5865872e-4,81.233264)">
</g><g
     id="g32"
     transform="matrix(0.84134128,0,0,0.84134128,1.5865872e-4,81.233264)">
</g><g
     id="g34"
     transform="matrix(0.84134128,0,0,0.84134128,1.5865872e-4,81.233264)">
</g><g
     id="g36"
     transform="matrix(0.84134128,0,0,0.84134128,1.5865872e-4,81.233264)">
</g><g
     id="g38"
     transform="matrix(0.84134128,0,0,0.84134128,1.5865872e-4,81.233264)">
</g><g
     id="g40"
     transform="matrix(0.84134128,0,0,0.84134128,1.5865872e-4,81.233264)">
</g><g
     id="g42"
     transform="matrix(0.84134128,0,0,0.84134128,1.5865872e-4,81.233264)">
</g><path
     id="path1234-3"
     style="color:#000000;font-style:normal;font-variant:normal;font-weight:normal;font-stretch:normal;font-size:medium;line-height:normal;font-family:sans-serif;font-variant-ligatures:normal;font-variant-position:normal;font-variant-caps:normal;font-variant-numeric:normal;font-variant-alternates:normal;font-variant-east-asian:normal;font-feature-settings:normal;font-variation-settings:normal;text-indent:0;text-align:start;text-decoration:none;text-decoration-line:none;text-decoration-style:solid;text-decoration-color:#000000;letter-spacing:normal;word-spacing:normal;text-transform:none;writing-mode:lr-tb;direction:ltr;text-orientation:mixed;dominant-baseline:auto;baseline-shift:baseline;text-anchor:start;white-space:normal;shape-padding:0;shape-margin:0;inline-size:0;clip-rule:nonzero;overflow:visible;visibility:visible;isolation:auto;mix-blend-mode:normal;color-interpolation:sRGB;color-interpolation-filters:linearRGB;solid-color:#000000;solid-opacity:1;vector-effect:none;fill:#fbbf24;fill-opacity:1;fill-rule:nonzero;stroke:none;stroke-width:0.999996;stroke-linecap:butt;stroke-linejoin:miter;stroke-miterlimit:4;stroke-dasharray:none;stroke-dashoffset:0;stroke-opacity:1;color-rendering:auto;image-rendering:auto;shape-rendering:auto;text-rendering:auto;enable-background:accumulate;stop-color:#000000"
     d="m 376.22367,302.65864 c -7.17962,-10.67818 -15.13928,1.65116 -21.01854,6.78824 -22.73245,21.93022 -45.46491,43.86044 -68.19737,65.79066 -76.28399,1.57775 -152.56799,3.1555 -228.851987,4.73324 -22.00179,2.53114 -14.752913,29.93061 -10.196137,44.28821 9.814722,30.06791 41.419675,45.58673 70.901374,49.34303 29.26492,4.06218 58.89688,1.61918 88.3105,0.99095 30.4528,-1.59635 64.77027,-12.40983 79.51312,-41.4726 7.34628,-12.99979 8.84349,-28.53478 10.74984,-42.66883 26.60284,-26.05284 53.99542,-51.3622 80.06559,-77.91668 2.67279,-3.01594 1.68664,-7.45755 -1.27639,-9.87622 z" /><path
     id="path1067-6"
     style="color:#000000;font-style:normal;font-variant:normal;font-weight:normal;font-stretch:normal;font-size:medium;line-height:normal;font-family:sans-serif;font-variant-ligatures:normal;font-variant-position:normal;font-variant-caps:normal;font-variant-numeric:normal;font-variant-alternates:normal;font-variant-east-asian:normal;font-feature-settings:normal;font-variation-settings:normal;text-indent:0;text-align:start;text-decoration:none;text-decoration-line:none;text-decoration-style:solid;text-decoration-color:#000000;letter-spacing:normal;word-spacing:normal;text-transform:none;writing-mode:lr-tb;direction:ltr;text-orientation:mixed;dominant-baseline:auto;baseline-shift:baseline;text-anchor:start;white-space:normal;shape-padding:0;shape-margin:0;inline-size:0;clip-rule:nonzero;overflow:visible;visibility:visible;isolation:auto;mix-blend-mode:normal;color-interpolation:sRGB;color-interpolation-filters:linearRGB;solid-color:#000000;solid-opacity:1;vector-effect:none;fill:#fbbf24;fill-opacity:1;fill-rule:nonzero;stroke:none;stroke-width:15.8701;stroke-linecap:round;stroke-linejoin:round;stroke-miterlimit:4;stroke-dasharray:none;stroke-dashoffset:0;stroke-opacity:1;color-rendering:auto;image-rendering:auto;shape-rendering:auto;text-rendering:auto;enable-background:accumulate;stop-color:#000000"
     d="m 193.38289,241.5641 c 12.42647,-23.88908 24.85293,-47.77816 37.2794,-71.66724 -32.00439,26.83078 -64.00878,53.66157 -96.01317,80.49235 13.51178,9.98173 27.02355,19.96346 40.53533,29.9452 -12.42647,23.88908 -24.85294,47.77815 -37.27941,71.66723 32.0044,-26.83078 64.00879,-53.66156 96.01318,-80.49234 -13.51178,-9.98174 -27.02355,-19.96347 -40.53533,-29.9452 z" /></g></svg>
