<?xml version="1.0" encoding="UTF-8" standalone="no"?>
<!DOCTYPE svg PUBLIC "-//W3C//DTD SVG 1.1//EN" "http://www.w3.org/Graphics/SVG/1.1/DTD/svg11.dtd">
<!-- Created with Vectornator (http://vectornator.io/) -->
<svg height="100%" stroke-miterlimit="10" style="fill-rule:nonzero;clip-rule:evenodd;stroke-linecap:round;stroke-linejoin:round;" version="1.1" viewBox="0 0 1024 1024" width="100%" xml:space="preserve" xmlns="http://www.w3.org/2000/svg" xmlns:xlink="http://www.w3.org/1999/xlink">
<defs/>
<g id="Circle-BG">
<path d="M0 512C0 229.23 229.23 0 512 0C794.77 0 1024 229.23 1024 512C1024 794.77 794.77 1024 512 1024C229.23 1024 0 794.77 0 512Z" fill="#000000" fill-rule="nonzero" opacity="1" stroke="none"/>
</g>
<g id="Layer-1">
<path d="M709.569 232.568C674.305 232.568 642.437 242.484 615.232 262.27C608.433 267.214 602.111 272.658 596.268 278.584C594.584 277.001 592.868 275.469 591.105 273.972L591.14 273.938C590.992 273.806 590.84 273.69 590.692 273.559C590.518 273.412 590.351 273.258 590.176 273.112L590.141 273.146C566.422 252.457 537.742 241.792 505.785 241.792L455.054 241.792C420.02 241.792 388.85 254.671 363.641 279.444C354.789 288.144 347.523 297.683 341.683 307.873C344.478 310.203 347.229 312.662 349.874 315.307C371.5 336.933 382.64 363.668 382.64 394.054C382.64 425.01 371.504 451.981 349.737 473.386C342.131 480.864 333.855 486.974 325.06 491.868L325.06 514.205C336.226 520.975 346.007 529.841 354.073 541.016C372.972 567.196 381.814 603.929 381.814 650.979C381.814 683.712 376.449 712.106 365.982 735.921C390.477 759.025 420.779 771.061 455.054 771.061C456.638 771.061 504.2 771.061 505.785 771.061C541.549 771.061 572.957 758.09 597.679 732.927C622.178 707.99 634.884 676.942 634.884 641.962C634.884 616.376 615.28 596.806 589.694 596.806C564.108 596.806 544.504 616.376 544.504 641.962C544.504 653.687 541.069 662.192 533.525 669.736C525.981 677.28 517.511 680.715 505.785 680.716L455.054 680.716C443.22 680.716 434.454 677.167 426.556 669.427C418.858 661.883 415.405 653.521 415.405 641.962L415.405 371.786C415.405 360.709 418.999 352.076 427.141 343.77C435.036 335.718 443.551 332.137 455.054 332.137L505.785 332.137C515.861 332.137 523.803 335.126 531.322 341.705C531.562 341.915 531.8 342.121 532.045 342.325C535.834 345.482 539.18 349.477 542.129 354.509C542.502 355.145 542.98 356.447 543.437 358.57C544.119 361.738 544.504 365.879 544.504 370.891L544.504 400.387C544.504 425.973 564.108 445.577 589.694 445.577C615.28 445.577 634.884 425.973 634.884 400.387C634.884 386.806 638.09 374.323 644.693 362.356C651.283 350.411 660.301 340.921 672.192 333.411C683.311 326.388 695.475 322.913 709.569 322.913C736.594 322.913 756.122 330.043 770.454 343.977C784.489 357.623 791.62 376.481 791.62 403.14C791.62 422.736 787.99 438.809 781.054 451.841C774.668 463.84 766.915 471.679 757.306 476.483C757.042 476.616 756.776 476.758 756.515 476.896C735.765 487.858 713.468 487.314 685.718 473.696C685.67 473.672 685.629 473.65 685.581 473.627C667.716 464.138 646.778 467.962 632.647 482.093C628.267 486.473 624.628 491.526 622.081 497.753C618.413 506.719 617.7 516.812 620.635 526.595C623.23 535.244 628.153 542.16 634.368 547.486C637.657 550.306 641.198 552.416 644.899 554.266L644.865 554.335C645.551 554.7 646.242 555.013 646.93 555.368C647.068 555.439 647.205 555.504 647.343 555.574C672.058 568.237 697.902 574.59 724.438 574.194C750.885 573.799 775.661 567.959 798.297 556.641C825.738 542.921 847.031 521.192 861.556 492.556C875.196 465.666 882 435.993 882 404.069C882 353.292 865.966 310.844 833.609 279.307C801.558 248.067 759.435 232.568 709.569 232.568Z" fill="#fbbf24" fill-rule="nonzero" opacity="1" stroke="none"/>
<path d="M212.901 791.098C209.008 792.21 207.062 790.542 207.062 786.093C207.062 783.869 208.452 782.201 211.233 781.089C271.29 769.411 301.318 726.036 301.318 650.965C301.318 573.669 274.348 535.021 220.408 535.021C200.945 535.021 184.68 541.555 171.612 554.623C158.544 567.691 152.01 583.956 152.01 603.419C152.01 624.551 158.544 641.372 171.612 653.884C184.68 666.396 200.945 672.652 220.408 672.652C223.745 672.652 225.413 674.32 225.413 677.657C225.413 680.993 223.745 682.662 220.408 682.662C198.721 682.662 180.231 675.432 164.939 660.974C149.646 646.516 142 627.331 142 603.419C142 581.176 149.646 562.547 164.939 547.533C180.231 532.519 198.721 525.011 220.408 525.011C281.021 525.011 311.328 566.996 311.328 650.965C311.328 729.929 278.519 776.64 212.901 791.098ZM227.081 479.134C203.169 479.134 183.011 470.793 166.607 454.11C150.202 437.428 142 417.409 142 394.053C142 370.698 150.341 350.679 167.024 333.996C183.706 317.313 203.725 308.972 227.081 308.972C250.437 308.972 270.456 317.313 287.138 333.996C303.821 350.679 312.162 370.698 312.162 394.053C312.162 417.965 303.821 438.123 287.138 454.528C270.456 470.932 250.437 479.134 227.081 479.134ZM152.01 394.053C152.01 414.628 159.239 432.284 173.697 447.02C188.155 461.757 205.95 469.125 227.081 469.125C248.212 469.125 266.007 461.896 280.465 447.437C294.924 432.979 302.153 415.184 302.153 394.053C302.153 372.922 294.924 355.127 280.465 340.669C266.007 326.211 248.212 318.982 227.081 318.982C206.506 318.982 188.85 326.211 174.114 340.669C159.378 355.127 152.01 372.922 152.01 394.053Z" fill="none" opacity="1" stroke="#ff8b59" stroke-linecap="butt" stroke-linejoin="round" stroke-width="48"/>
</g>
</svg>
