<?xml version="1.0" encoding="UTF-8" standalone="no"?>
<!DOCTYPE svg PUBLIC "-//W3C//DTD SVG 1.1//EN" "http://www.w3.org/Graphics/SVG/1.1/DTD/svg11.dtd">
<!-- Created with Vectornator (http://vectornator.io/) -->
<svg height="100%" stroke-miterlimit="10" style="fill-rule:nonzero;clip-rule:evenodd;stroke-linecap:round;stroke-linejoin:round;" version="1.1" viewBox="0 0 1024 1024" width="100%" xml:space="preserve" xmlns="http://www.w3.org/2000/svg" xmlns:xlink="http://www.w3.org/1999/xlink">
<defs/>
<g id="BG">
<path d="M0 512C0 229.23 229.23 0 512 0C794.77 0 1024 229.23 1024 512C1024 794.77 794.77 1024 512 1024C229.23 1024 0 794.77 0 512Z" fill="#000000" fill-rule="nonzero" opacity="1" stroke="none"/>
</g>
<g id="Layer-1">
<path d="M720.691 216.838C683.442 216.838 649.78 227.312 621.043 248.212C613.862 253.434 607.184 259.184 601.012 265.444C599.233 263.772 597.42 262.153 595.558 260.572L595.595 260.536C595.439 260.398 595.278 260.274 595.122 260.136C594.938 259.981 594.762 259.818 594.577 259.664L594.54 259.7C569.486 237.847 539.191 226.581 505.435 226.581L451.848 226.581C414.842 226.581 381.917 240.185 355.29 266.353C345.939 275.542 338.264 285.619 332.095 296.382C335.048 298.843 337.954 301.441 340.748 304.235C363.591 327.078 375.357 355.318 375.357 387.414C375.357 420.113 363.595 448.603 340.602 471.212C332.569 479.112 323.827 485.565 314.536 490.735L314.536 514.329C326.331 521.48 336.662 530.845 345.183 542.649C365.145 570.303 374.485 609.104 374.485 658.803C374.485 693.379 368.818 723.371 357.762 748.526C383.636 772.931 415.644 785.645 451.848 785.644C453.522 785.644 503.761 785.644 505.435 785.644C543.213 785.644 576.388 771.944 602.502 745.363C628.38 719.023 641.802 686.227 641.802 649.278C641.802 622.252 621.094 601.58 594.068 601.58C567.042 601.58 546.334 622.252 546.334 649.278C546.334 661.664 542.705 670.647 534.737 678.616C526.768 686.585 517.821 690.213 505.435 690.213L451.848 690.213C439.348 690.213 430.089 686.465 421.746 678.289C413.615 670.32 409.967 661.487 409.967 649.278L409.967 363.893C409.967 352.192 413.763 343.073 422.364 334.3C430.703 325.794 439.697 322.012 451.848 322.012L505.435 322.012C516.079 322.012 524.468 325.169 532.41 332.119C532.663 332.34 532.915 332.558 533.174 332.773C537.175 336.108 540.71 340.328 543.825 345.643C544.219 346.315 544.724 347.69 545.207 349.933C545.927 353.279 546.334 357.653 546.334 362.948L546.334 394.104C546.334 421.13 567.042 441.837 594.068 441.837C621.094 441.837 641.802 421.13 641.802 394.104C641.802 379.758 645.188 366.573 652.163 353.932C659.124 341.314 668.649 331.29 681.21 323.357C692.955 315.939 705.803 312.269 720.691 312.269C749.237 312.269 769.865 319.8 785.003 334.518C799.829 348.932 807.361 368.852 807.361 397.012C807.361 417.711 803.527 434.688 796.2 448.454C789.454 461.128 781.265 469.409 771.116 474.484C770.836 474.624 770.555 474.774 770.279 474.92C748.362 486.499 724.809 485.925 695.498 471.539C695.447 471.514 695.403 471.492 695.352 471.467C676.482 461.444 654.365 465.483 639.439 480.41C634.812 485.036 630.969 490.374 628.278 496.951C624.403 506.422 623.651 517.083 626.751 527.417C629.491 536.552 634.692 543.857 641.256 549.484C644.731 552.462 648.471 554.691 652.381 556.646L652.344 556.718C653.069 557.103 653.799 557.435 654.526 557.809C654.671 557.884 654.817 557.953 654.962 558.027C681.068 571.403 708.368 578.114 736.397 577.695C764.333 577.278 790.504 571.11 814.414 559.154C843.4 544.662 865.891 521.71 881.234 491.462C895.642 463.057 902.829 431.714 902.829 397.994C902.829 344.357 885.892 299.52 851.714 266.207C817.858 233.209 773.364 216.838 720.691 216.838Z" fill="#fbbf24" fill-rule="nonzero" opacity="1" stroke="none"/>
<path d="M196.063 806.81C191.952 807.985 189.896 806.222 189.896 801.523C189.896 799.174 191.364 797.412 194.301 796.237C257.739 783.902 289.458 738.085 289.458 658.788C289.458 577.14 260.97 536.317 203.993 536.317C183.434 536.317 166.253 543.219 152.45 557.022C138.646 570.826 131.744 588.007 131.744 608.566C131.744 630.887 138.646 648.655 152.45 661.871C166.253 675.088 183.434 681.696 203.993 681.696C207.517 681.696 209.28 683.458 209.28 686.982C209.28 690.507 207.517 692.269 203.993 692.269C181.085 692.269 161.554 684.633 145.401 669.361C129.248 654.089 121.171 633.824 121.171 608.566C121.171 585.07 129.248 565.393 145.401 549.533C161.554 533.674 181.085 525.744 203.993 525.744C268.019 525.744 300.031 570.092 300.031 658.788C300.031 742.197 265.375 791.538 196.063 806.81ZM211.042 477.284C185.784 477.284 164.491 468.473 147.163 450.852C129.835 433.23 121.171 412.084 121.171 387.414C121.171 362.743 129.982 341.597 147.604 323.975C165.225 306.354 186.371 297.543 211.042 297.543C235.712 297.543 256.858 306.354 274.48 323.975C292.102 341.597 300.912 362.743 300.912 387.414C300.912 412.671 292.102 433.964 274.48 451.292C256.858 468.62 235.712 477.284 211.042 477.284ZM131.744 387.414C131.744 409.147 139.38 427.797 154.652 443.362C169.924 458.928 188.721 466.711 211.042 466.711C233.363 466.711 252.159 459.075 267.431 443.803C282.703 428.531 290.339 409.734 290.339 387.414C290.339 365.093 282.703 346.296 267.431 331.024C252.159 315.752 233.363 308.116 211.042 308.116C189.308 308.116 170.659 315.752 155.093 331.024C139.527 346.296 131.744 365.093 131.744 387.414Z" fill="none" opacity="1" stroke="#ff8b59" stroke-linecap="butt" stroke-linejoin="round" stroke-width="48"/>
</g>
</svg>
