<?xml version="1.0" encoding="UTF-8" standalone="no"?>
<svg
   xmlns:dc="http://purl.org/dc/elements/1.1/"
   xmlns:cc="http://creativecommons.org/ns#"
   xmlns:rdf="http://www.w3.org/1999/02/22-rdf-syntax-ns#"
   xmlns:svg="http://www.w3.org/2000/svg"
   xmlns="http://www.w3.org/2000/svg"
   xmlns:sodipodi="http://sodipodi.sourceforge.net/DTD/sodipodi-0.dtd"
   xmlns:inkscape="http://www.inkscape.org/namespaces/inkscape"
   version="1.1"
   id="Layer_1"
   x="0px"
   y="0px"
   viewBox="0 0 512 512"
   style="enable-background:new 0 0 512 512;"
   xml:space="preserve"
   sodipodi:docname="icon.svg"
   inkscape:version="1.0.2 (e86c870879, 2021-01-15)"><metadata
   id="metadata31"><rdf:RDF><cc:Work
       rdf:about=""><dc:format>image/svg+xml</dc:format><dc:type
         rdf:resource="http://purl.org/dc/dcmitype/StillImage" /></cc:Work></rdf:RDF></metadata><sodipodi:namedview
   pagecolor="#ffffff"
   bordercolor="#666666"
   borderopacity="1"
   objecttolerance="10"
   gridtolerance="10"
   guidetolerance="10"
   inkscape:pageopacity="0"
   inkscape:pageshadow="2"
   inkscape:window-width="2560"
   inkscape:window-height="1377"
   id="namedview29"
   showgrid="false"
   inkscape:zoom="2.0899939"
   inkscape:cx="196.63483"
   inkscape:cy="225.96326"
   inkscape:window-x="0"
   inkscape:window-y="33"
   inkscape:window-maximized="1"
   inkscape:current-layer="g1181" /><defs
   id="defs47" />

















<g
   id="g1181"
   transform="translate(70.12316,-64.513538)"><g
     id="g6"
     style="fill:#000000"
     transform="matrix(0.88997774,0,0,0.88997774,-7.7356253,59.185885)">
	<g
   id="g4"
   style="fill:#000000">
		<path
   d="m 218.239,145.822 c -81.575,0 -147.94,66.365 -147.94,147.94 0,81.575 66.365,147.94 147.94,147.94 81.575,0 147.94,-66.366 147.94,-147.94 0,-81.574 -66.366,-147.94 -147.94,-147.94 z"
   id="path2"
   style="fill:#000000" />
	</g>
</g><g
     id="g12"
     style="fill:#000000"
     transform="matrix(0.71273501,0,0,0.71273501,29.416678,110.36107)">
	<g
   id="g10"
   style="fill:#000000">
		<path
   d="m 511.999,55.607 c 0,-14.854 -5.784,-28.817 -16.286,-39.319 C 485.21,5.784 471.247,0 456.392,0 441.537,0 427.573,5.784 417.072,16.287 L 328.16,105.203 C 294.869,85.749 257.124,75.524 218.239,75.524 c -58.293,0 -113.097,22.7 -154.316,63.92 -41.22,41.22 -63.922,96.024 -63.922,154.318 0,58.294 22.701,113.097 63.921,154.317 C 105.141,489.3 159.944,512 218.238,512 c 58.294,0 113.097,-22.7 154.316,-63.921 41.219,-41.219 63.921,-96.024 63.921,-154.317 0,-38.884 -10.226,-76.629 -29.678,-109.92 L 495.71,94.928 c 10.505,-10.503 16.289,-24.469 16.289,-39.321 z m -293.76,416.512 c -98.347,0 -178.357,-80.011 -178.357,-178.357 0,-98.346 80.01,-178.357 178.357,-178.357 98.347,0 178.357,80.01 178.357,178.357 0,98.347 -80.011,178.357 -178.357,178.357 z M 471.145,70.951 c -8.308,8.308 -21.785,8.308 -30.097,0.001 -8.309,-8.315 -8.309,-21.79 0,-30.099 8.307,-8.308 21.788,-8.308 30.097,0.002 8.31,8.309 8.309,21.787 0,30.096 z"
   id="path8"
   style="fill:#000000" />
	</g>
</g><g
     id="g14"
     transform="matrix(0.84134128,0,0,0.84134128,1.5865872e-4,81.233264)">
</g><g
     id="g16"
     transform="matrix(0.84134128,0,0,0.84134128,1.5865872e-4,81.233264)">
</g><g
     id="g18"
     transform="matrix(0.84134128,0,0,0.84134128,1.5865872e-4,81.233264)">
</g><g
     id="g20"
     transform="matrix(0.84134128,0,0,0.84134128,1.5865872e-4,81.233264)">
</g><g
     id="g22"
     transform="matrix(0.84134128,0,0,0.84134128,1.5865872e-4,81.233264)">
</g><g
     id="g24"
     transform="matrix(0.84134128,0,0,0.84134128,1.5865872e-4,81.233264)">
</g><g
     id="g26"
     transform="matrix(0.84134128,0,0,0.84134128,1.5865872e-4,81.233264)">
</g><g
     id="g28"
     transform="matrix(0.84134128,0,0,0.84134128,1.5865872e-4,81.233264)">
</g><g
     id="g30"
     transform="matrix(0.84134128,0,0,0.84134128,1.5865872e-4,81.233264)">
</g><g
     id="g32"
     transform="matrix(0.84134128,0,0,0.84134128,1.5865872e-4,81.233264)">
</g><g
     id="g34"
     transform="matrix(0.84134128,0,0,0.84134128,1.5865872e-4,81.233264)">
</g><g
     id="g36"
     transform="matrix(0.84134128,0,0,0.84134128,1.5865872e-4,81.233264)">
</g><g
     id="g38"
     transform="matrix(0.84134128,0,0,0.84134128,1.5865872e-4,81.233264)">
</g><g
     id="g40"
     transform="matrix(0.84134128,0,0,0.84134128,1.5865872e-4,81.233264)">
</g><g
     id="g42"
     transform="matrix(0.84134128,0,0,0.84134128,1.5865872e-4,81.233264)">
</g><g
     style="fill:#ffffff;stroke-width:2;stroke-linecap:round;stroke-linejoin:round"
     id="g1075"
     transform="matrix(7.9350621,0,0,7.9350621,58.915846,193.55254)"><path
       d="M 18,13 26,2 8,13 14,19 6,30 24,19 Z"
       id="path1067"
       style="fill:#ffffff" /></g></g></svg>
