<?xml version="1.0" encoding="UTF-8" standalone="no"?>
<svg
   xmlns:dc="http://purl.org/dc/elements/1.1/"
   xmlns:cc="http://creativecommons.org/ns#"
   xmlns:rdf="http://www.w3.org/1999/02/22-rdf-syntax-ns#"
   xmlns:svg="http://www.w3.org/2000/svg"
   xmlns="http://www.w3.org/2000/svg"
   xmlns:sodipodi="http://sodipodi.sourceforge.net/DTD/sodipodi-0.dtd"
   xmlns:inkscape="http://www.inkscape.org/namespaces/inkscape"
   version="1.1"
   id="Layer_1"
   x="0px"
   y="0px"
   viewBox="0 0 512 512"
   style="enable-background:new 0 0 512 512;"
   xml:space="preserve"
   sodipodi:docname="app-icon.svg"
   inkscape:version="1.0.2 (e86c870879, 2021-01-15)"><metadata
   id="metadata31"><rdf:RDF><cc:Work
       rdf:about=""><dc:format>image/svg+xml</dc:format><dc:type
         rdf:resource="http://purl.org/dc/dcmitype/StillImage" /><dc:title></dc:title></cc:Work></rdf:RDF></metadata><sodipodi:namedview
   pagecolor="#ffffff"
   bordercolor="#000000"
   borderopacity="0.25098039"
   objecttolerance="10"
   gridtolerance="10"
   guidetolerance="10"
   inkscape:pageopacity="0"
   inkscape:pageshadow="2"
   inkscape:window-width="2560"
   inkscape:window-height="1377"
   id="namedview29"
   showgrid="false"
   inkscape:zoom="0.60019314"
   inkscape:cx="-105.05033"
   inkscape:cy="53.768017"
   inkscape:window-x="0"
   inkscape:window-y="33"
   inkscape:window-maximized="1"
   inkscape:current-layer="g1181"
   inkscape:document-rotation="0"
   showborder="true"
   inkscape:showpageshadow="false"
   inkscape:pagecheckerboard="false" /><defs
   id="defs47" />

















<g
   id="g1181"
   transform="translate(70.12316,-64.513538)"><rect
     style="fill:#000000;fill-opacity:1;fill-rule:evenodd;stroke:none;stroke-width:48;stroke-linecap:round;stroke-linejoin:round;stroke-miterlimit:4;stroke-dasharray:96, 48, 24, 48;stroke-dashoffset:0;stroke-opacity:1"
     id="rect102"
     width="511.99997"
     height="512"
     x="-70.123161"
     y="64.513535"
     ry="73.079193" /><g
     id="g14"
     transform="matrix(0.84134128,0,0,0.84134128,1.5865872e-4,81.233264)">
</g><g
     id="g16"
     transform="matrix(0.84134128,0,0,0.84134128,1.5865872e-4,81.233264)">
</g><g
     id="g18"
     transform="matrix(0.84134128,0,0,0.84134128,1.5865872e-4,81.233264)">
</g><g
     id="g20"
     transform="matrix(0.84134128,0,0,0.84134128,1.5865872e-4,81.233264)">
</g><g
     id="g22"
     transform="matrix(0.84134128,0,0,0.84134128,1.5865872e-4,81.233264)">
</g><g
     id="g24"
     transform="matrix(0.84134128,0,0,0.84134128,1.5865872e-4,81.233264)">
</g><g
     id="g26"
     transform="matrix(0.84134128,0,0,0.84134128,1.5865872e-4,81.233264)">
</g><g
     id="g28"
     transform="matrix(0.84134128,0,0,0.84134128,1.5865872e-4,81.233264)">
</g><g
     id="g30"
     transform="matrix(0.84134128,0,0,0.84134128,1.5865872e-4,81.233264)">
</g><g
     id="g32"
     transform="matrix(0.84134128,0,0,0.84134128,1.5865872e-4,81.233264)">
</g><g
     id="g34"
     transform="matrix(0.84134128,0,0,0.84134128,1.5865872e-4,81.233264)">
</g><g
     id="g36"
     transform="matrix(0.84134128,0,0,0.84134128,1.5865872e-4,81.233264)">
</g><g
     id="g38"
     transform="matrix(0.84134128,0,0,0.84134128,1.5865872e-4,81.233264)">
</g><g
     id="g40"
     transform="matrix(0.84134128,0,0,0.84134128,1.5865872e-4,81.233264)">
</g><g
     id="g42"
     transform="matrix(0.84134128,0,0,0.84134128,1.5865872e-4,81.233264)">
</g><g
     style="fill:#ffffff;stroke-width:2.23952;stroke-linecap:round;stroke-linejoin:round"
     id="g1075"
     transform="matrix(7.0077331,-1.0529544,1.0529544,7.0077331,56.90584,151.30111)"><path
       d="M 18,13 26,2 8,13 14,19 6,30 24,19 Z"
       id="path1067"
       style="fill:#ffffff;stroke-width:2.23952" /></g><g
     id="g1242"
     transform="matrix(0.84398206,0.3113234,-0.3113234,0.84398206,-457.69521,106.89136)"
     style="stroke-width:1.11164"><path
       d="m 982.94239,-138.10935 c -10.25691,-4.78279 -12.58118,-4.06737 -17.27088,6.15304 L 905.23925,-6.8420523 622.63374,104.09526 c -10.51859,4.12909 -15.66411,15.925 -11.53502,26.44358 30.43833,77.53965 102.19765,77.52854 179.73731,47.09022 l 47.10092,-18.48955 C 912.68406,129.79739 949.23873,83.83025 924.67354,8.3896677 L 984.84313,-116.29917 c 4.8193,-10.16387 8.35626,-17.02739 -1.90074,-21.81018 z"
       id="path1234"
       style="fill:#ffffff;stroke-width:1.11164"
       sodipodi:nodetypes="sccssssccs" /></g></g></svg>
